<?xml version="1.0" standalone="no"?>
<!DOCTYPE svg PUBLIC "-//W3C//DTD SVG 20010904//EN"
 "https://www.w3.org/TR/2001/REC-SVG-20010904/DTD/svg10.dtd">
<svg version="1.0" xmlns="https://www.w3.org/2000/svg"
 width="336.000000pt" height="336.000000pt" viewBox="0 0 336.000000 336.000000"
 preserveAspectRatio="xMidYMid meet">
<metadata>
Created by potrace 1.11, written by Peter Selinger 2001-2013
</metadata>
<g transform="translate(0.000000,336.000000) scale(0.100000,-0.100000)"
fill="#000000" stroke="none">
<path d="M2315 2398 c-44 -4 -150 -7 -235 -6 -151 3 -155 2 -158 -18 -3 -18 6
-23 63 -39 36 -9 75 -25 87 -35 21 -16 21 -20 9 -76 -12 -55 -289 -862 -325
-949 -31 -74 -84 -116 -172 -135 -43 -10 -63 -23 -64 -41 0 -3 165 -9 366 -12
403 -7 476 -1 603 50 324 128 529 420 548 779 16 288 -93 444 -339 484 -74 12
-268 11 -383 -2z m327 -96 c114 -64 151 -222 112 -480 -59 -401 -290 -672
-571 -672 -55 0 -173 19 -173 29 0 3 88 263 196 578 168 489 200 573 218 577
12 2 54 3 94 1 58 -3 83 -10 124 -33z"/>
<path d="M686 2378 c-5 -22 -8 -20 81 -47 85 -25 98 -41 84 -103 -15 -62 -275
-823 -329 -959 -25 -63 -126 -139 -188 -139 -22 0 -44 -17 -44 -35 0 -7 182
-10 580 -10 573 0 581 0 584 20 33 180 89 345 152 443 38 59 40 65 20 81 -12
10 -35 -8 -129 -98 -62 -61 -153 -160 -202 -221 -100 -124 -98 -123 -256 -140
-151 -16 -216 -13 -238 9 -13 13 -18 27 -14 43 15 59 275 825 307 902 48 116
73 152 122 176 44 22 174 50 230 50 23 0 37 6 44 19 5 11 10 21 10 23 0 2
-182 3 -404 3 -377 0 -405 -1 -410 -17z"/>
</g>
</svg>
